<?xml version="1.0" encoding="UTF-8" standalone="no"?>
<!DOCTYPE svg PUBLIC "-//W3C//DTD SVG 1.1//EN"
 "http://www.w3.org/Graphics/SVG/1.1/DTD/svg11.dtd">
<!-- Generated by graphviz version 2.50.0 (0)
 -->
<!-- Pages: 1 -->
<svg width="1039pt" height="1020pt"
 viewBox="0.00 0.00 1039.30 1019.81" xmlns="http://www.w3.org/2000/svg" xmlns:xlink="http://www.w3.org/1999/xlink">
<g id="graph0" class="graph" transform="scale(1 1) rotate(0) translate(4 1015.81)">
<polygon fill="white" stroke="transparent" points="-4,4 -4,-1015.81 1035.3,-1015.81 1035.3,4 -4,4"/>
<text text-anchor="middle" x="515.65" y="-966.81" font-family="DejaVu Sans,Nimbus Sans" font-size="50.00">GCOVERP Schema (SDE)</text>
<!-- GC_CHRONO -->
<g id="node1" class="node">
<title>GC_CHRONO</title>
<polygon fill="lightblue" stroke="lightblue" points="672,-126 570,-126 570,-90 672,-90 672,-126"/>
<text text-anchor="middle" x="621" y="-103.8" font-family="DejaVu Sans,Nimbus Sans" font-size="14.00">GC_CHRONO</text>
</g>
<!-- GC_LITHO -->
<g id="node2" class="node">
<title>GC_LITHO</title>
<polygon fill="lightblue" stroke="lightblue" points="84.65,-265.21 -0.22,-265.21 -0.22,-229.21 84.65,-229.21 84.65,-265.21"/>
<text text-anchor="middle" x="42.22" y="-243.01" font-family="DejaVu Sans,Nimbus Sans" font-size="14.00">GC_LITHO</text>
</g>
<!-- GC_LITSTRAT -->
<g id="node3" class="node">
<title>GC_LITSTRAT</title>
<polygon fill="lightblue" stroke="lightblue" points="809.8,-66 700.8,-66 700.8,-30 809.8,-30 809.8,-66"/>
<text text-anchor="middle" x="755.3" y="-43.8" font-family="DejaVu Sans,Nimbus Sans" font-size="14.00">GC_LITSTRAT</text>
</g>
<!-- GC_TECTO -->
<g id="node4" class="node">
<title>GC_TECTO</title>
<polygon fill="lightblue" stroke="lightblue" points="658,-36 570,-36 570,0 658,0 658,-36"/>
<text text-anchor="middle" x="614" y="-13.8" font-family="DejaVu Sans,Nimbus Sans" font-size="14.00">GC_TECTO</text>
</g>
<!-- GC_LITHO_UNCO -->
<g id="node5" class="node">
<title>GC_LITHO_UNCO</title>
<polygon fill="lightblue" stroke="lightblue" points="161.16,-606 29.95,-606 29.95,-570 161.16,-570 161.16,-606"/>
<text text-anchor="middle" x="95.55" y="-583.8" font-family="DejaVu Sans,Nimbus Sans" font-size="14.00">GC_LITHO_UNCO</text>
</g>
<!-- GC_LITHO_BED -->
<g id="node6" class="node">
<title>GC_LITHO_BED</title>
<polygon fill="lightblue" stroke="lightblue" points="1031.52,-366 911.64,-366 911.64,-330 1031.52,-330 1031.52,-366"/>
<text text-anchor="middle" x="971.58" y="-343.8" font-family="DejaVu Sans,Nimbus Sans" font-size="14.00">GC_LITHO_BED</text>
</g>
<!-- GC_LITSTRAT_BED -->
<g id="node7" class="node">
<title>GC_LITSTRAT_BED</title>
<polygon fill="lightblue" stroke="lightblue" points="204,-426 60,-426 60,-390 204,-390 204,-426"/>
<text text-anchor="middle" x="132" y="-403.8" font-family="DejaVu Sans,Nimbus Sans" font-size="14.00">GC_LITSTRAT_BED</text>
</g>
<!-- GC_LITSTRAT_UNCO -->
<g id="node8" class="node">
<title>GC_LITSTRAT_UNCO</title>
<polygon fill="lightblue" stroke="lightblue" points="845.33,-726 689.89,-726 689.89,-690 845.33,-690 845.33,-726"/>
<text text-anchor="middle" x="767.61" y="-703.8" font-family="DejaVu Sans,Nimbus Sans" font-size="14.00">GC_LITSTRAT_UNCO</text>
</g>
<!-- GC_BED_FORM_ATT -->
<g id="node9" class="node">
<title>GC_BED_FORM_ATT</title>
<polygon fill="lightblue" stroke="lightblue" points="571.52,-672.87 419.83,-672.87 419.83,-636.87 571.52,-636.87 571.52,-672.87"/>
<text text-anchor="middle" x="495.67" y="-650.67" font-family="DejaVu Sans,Nimbus Sans" font-size="14.00">GC_BED_FORM_ATT</text>
</g>
<!-- Bedrock &#45; Rbed Form Att -->
<g id="node10" class="node">
<title>Bedrock &#45; Rbed Form Att</title>
<polygon fill="lightgrey" stroke="lightgrey" points="633.08,-627.98 477.08,-609.98 633.08,-591.98 789.08,-609.98 633.08,-627.98"/>
<text text-anchor="middle" x="633.08" y="-605.78" font-family="DejaVu Sans,Nimbus Sans" font-size="14.00">Bedrock &#45; Rbed Form Att</text>
</g>
<!-- GC_BED_FORM_ATT&#45;&#45;Bedrock &#45; Rbed Form Att -->
<g id="edge1" class="edge">
<title>GC_BED_FORM_ATT&#45;&#45;Bedrock &#45; Rbed Form Att</title>
<path fill="none" stroke="black" d="M571.7,-637.12C583.87,-633.05 595.73,-628.79 605.73,-624.84"/>
<text text-anchor="middle" x="585.22" y="-635.18" font-family="DejaVu Sans,Nimbus Sans" font-size="14.00">1</text>
</g>
<!-- GC_BED_FORM_ATT&#45;&#45;Bedrock &#45; Rbed Form Att -->
<g id="edge2" class="edge">
<title>GC_BED_FORM_ATT&#45;&#45;Bedrock &#45; Rbed Form Att</title>
<path fill="none" stroke="black" d="M531.33,-636.81C545.12,-631.64 561.23,-626.19 576.52,-621.49"/>
<text text-anchor="middle" x="550.43" y="-633.35" font-family="DejaVu Sans,Nimbus Sans" font-size="14.00">1</text>
</g>
<!-- GC_BEDROCK -->
<g id="node11" class="node">
<title>GC_BEDROCK</title>
<polygon fill="lightcoral" stroke="lightcoral" points="819.14,-566.41 709.45,-566.41 709.45,-530.41 819.14,-530.41 819.14,-566.41"/>
<text text-anchor="middle" x="764.29" y="-544.21" font-family="DejaVu Sans,Nimbus Sans" font-size="14.00">GC_BEDROCK</text>
</g>
<!-- Bedrock &#45; Rbed Form Att&#45;&#45;GC_BEDROCK -->
<g id="edge3" class="edge">
<title>Bedrock &#45; Rbed Form Att&#45;&#45;GC_BEDROCK</title>
<path fill="none" stroke="black" d="M675.83,-596.85C696.67,-587.96 721.01,-576.3 738.9,-566.55"/>
<text text-anchor="middle" x="701.92" y="-569.1" font-family="DejaVu Sans,Nimbus Sans" font-size="14.00">m</text>
</g>
<!-- Bedrock &#45; Rbed Form Att&#45;&#45;GC_BEDROCK -->
<g id="edge4" class="edge">
<title>Bedrock &#45; Rbed Form Att&#45;&#45;GC_BEDROCK</title>
<path fill="none" stroke="black" d="M653.99,-594.32C669.19,-585.78 690.46,-575.31 710.28,-566.46"/>
<text text-anchor="middle" x="676.69" y="-567.79" font-family="DejaVu Sans,Nimbus Sans" font-size="14.00">m</text>
</g>
<!-- Litho Bed &#45; Rbed Litho -->
<g id="node12" class="node">
<title>Litho Bed &#45; Rbed Litho</title>
<polygon fill="lightgrey" stroke="lightgrey" points="878.87,-477.41 734.87,-459.41 878.87,-441.41 1022.87,-459.41 878.87,-477.41"/>
<text text-anchor="middle" x="878.87" y="-455.21" font-family="DejaVu Sans,Nimbus Sans" font-size="14.00">Litho Bed &#45; Rbed Litho</text>
</g>
<!-- GC_BEDROCK&#45;&#45;Litho Bed &#45; Rbed Litho -->
<g id="edge5" class="edge">
<title>GC_BEDROCK&#45;&#45;Litho Bed &#45; Rbed Litho</title>
<path fill="none" stroke="black" d="M787.48,-530.4C808.4,-514.14 838.87,-490.48 858.78,-475.01"/>
<text text-anchor="middle" x="819.63" y="-506.9" font-family="DejaVu Sans,Nimbus Sans" font-size="14.00">n</text>
</g>
<!-- Litho Bed &#45; Rbed Litho&#45;&#45;GC_LITHO_BED -->
<g id="edge6" class="edge">
<title>Litho Bed &#45; Rbed Litho&#45;&#45;GC_LITHO_BED</title>
<path fill="none" stroke="black" d="M892.55,-442.97C909.58,-422.51 938.56,-387.68 956.3,-366.36"/>
<text text-anchor="middle" x="918.98" y="-408.86" font-family="DejaVu Sans,Nimbus Sans" font-size="14.00">m</text>
</g>
<!-- GC_SYSTEM -->
<g id="node13" class="node">
<title>GC_SYSTEM</title>
<polygon fill="lightblue" stroke="lightblue" points="158,-696 60,-696 60,-660 158,-660 158,-696"/>
<text text-anchor="middle" x="109" y="-673.8" font-family="DejaVu Sans,Nimbus Sans" font-size="14.00">GC_SYSTEM</text>
</g>
<!-- GC_COMPOSIT -->
<g id="node14" class="node">
<title>GC_COMPOSIT</title>
<polygon fill="lightblue" stroke="lightblue" points="699.55,-472.25 586.07,-472.25 586.07,-436.25 699.55,-436.25 699.55,-472.25"/>
<text text-anchor="middle" x="642.81" y="-450.05" font-family="DejaVu Sans,Nimbus Sans" font-size="14.00">GC_COMPOSIT</text>
</g>
<!-- GC_ADMIXTURE -->
<g id="node15" class="node">
<title>GC_ADMIXTURE</title>
<polygon fill="lightblue" stroke="lightblue" points="512,-66 385.12,-66 385.12,-30 512,-30 512,-66"/>
<text text-anchor="middle" x="448.56" y="-43.8" font-family="DejaVu Sans,Nimbus Sans" font-size="14.00">GC_ADMIXTURE</text>
</g>
<!-- GC_CHARCAT -->
<g id="node16" class="node">
<title>GC_CHARCAT</title>
<polygon fill="lightblue" stroke="lightblue" points="296.87,-666.79 187.18,-666.79 187.18,-630.79 296.87,-630.79 296.87,-666.79"/>
<text text-anchor="middle" x="242.02" y="-644.59" font-family="DejaVu Sans,Nimbus Sans" font-size="14.00">GC_CHARCAT</text>
</g>
<!-- GC_EXPLOIT_GEOMAT_PLG -->
<g id="node17" class="node">
<title>GC_EXPLOIT_GEOMAT_PLG</title>
<polygon fill="lightcoral" stroke="lightcoral" points="771.15,-317.6 569.95,-317.6 569.95,-281.6 771.15,-281.6 771.15,-317.6"/>
<text text-anchor="middle" x="670.55" y="-295.4" font-family="DejaVu Sans,Nimbus Sans" font-size="14.00">GC_EXPLOIT_GEOMAT_PLG</text>
</g>
<!-- Litstrat &#45; Aexp Exp Unit -->
<g id="node18" class="node">
<title>Litstrat &#45; Aexp Exp Unit</title>
<polygon fill="lightgrey" stroke="lightgrey" points="786.15,-216.36 636.92,-198.36 786.15,-180.36 935.38,-198.36 786.15,-216.36"/>
<text text-anchor="middle" x="786.15" y="-194.16" font-family="DejaVu Sans,Nimbus Sans" font-size="14.00">Litstrat &#45; Aexp Exp Unit</text>
</g>
<!-- GC_EXPLOIT_GEOMAT_PLG&#45;&#45;Litstrat &#45; Aexp Exp Unit -->
<g id="edge7" class="edge">
<title>GC_EXPLOIT_GEOMAT_PLG&#45;&#45;Litstrat &#45; Aexp Exp Unit</title>
<path fill="none" stroke="black" d="M691.22,-281.5C713.04,-262.39 747.1,-232.56 767.94,-214.31"/>
<text text-anchor="middle" x="726.08" y="-252.11" font-family="DejaVu Sans,Nimbus Sans" font-size="14.00">n</text>
</g>
<!-- Litstrat &#45; Aexp Exp Unit&#45;&#45;GC_LITSTRAT -->
<g id="edge8" class="edge">
<title>Litstrat &#45; Aexp Exp Unit&#45;&#45;GC_LITSTRAT</title>
<path fill="none" stroke="black" d="M791.41,-180.81C791.76,-152.14 780.48,-95.65 768.87,-66.42"/>
<text text-anchor="middle" x="774.7" y="-127.82" font-family="DejaVu Sans,Nimbus Sans" font-size="14.00">m</text>
</g>
<!-- Litstrat &#45; Aexp Exp Unit&#45;&#45;GC_LITSTRAT -->
<g id="edge9" class="edge">
<title>Litstrat &#45; Aexp Exp Unit&#45;&#45;GC_LITSTRAT</title>
<path fill="none" stroke="black" d="M773.33,-181.78C761.52,-153.31 749.82,-95.5 750.04,-66.05"/>
<text text-anchor="middle" x="756.24" y="-128.12" font-family="DejaVu Sans,Nimbus Sans" font-size="14.00">m</text>
</g>
<!-- Litstrat &#45; Aexp Exp Unit&#45;&#45;GC_LITSTRAT -->
<g id="edge10" class="edge">
<title>Litstrat &#45; Aexp Exp Unit&#45;&#45;GC_LITSTRAT</title>
<path fill="none" stroke="black" d="M782.49,-180.52C776.58,-151.74 765.02,-95.35 759.06,-66.28"/>
<text text-anchor="middle" x="765.33" y="-110.8" font-family="DejaVu Sans,Nimbus Sans" font-size="14.00">m</text>
</g>
<!-- GC_LINEAR_OBJECTS -->
<g id="node19" class="node">
<title>GC_LINEAR_OBJECTS</title>
<polygon fill="lightcoral" stroke="lightcoral" points="880,-396 720,-396 720,-360 880,-360 880,-396"/>
<text text-anchor="middle" x="800" y="-373.8" font-family="DejaVu Sans,Nimbus Sans" font-size="14.00">GC_LINEAR_OBJECTS</text>
</g>
<!-- GC_POINT_OBJECTS -->
<g id="node20" class="node">
<title>GC_POINT_OBJECTS</title>
<polygon fill="lightcoral" stroke="lightcoral" points="240,-126 90,-126 90,-90 240,-90 240,-126"/>
<text text-anchor="middle" x="165" y="-103.8" font-family="DejaVu Sans,Nimbus Sans" font-size="14.00">GC_POINT_OBJECTS</text>
</g>
<!-- GC_FOSSILS -->
<g id="node21" class="node">
<title>GC_FOSSILS</title>
<polygon fill="lightcoral" stroke="lightcoral" points="289.36,-947.81 192.36,-947.81 192.36,-911.81 289.36,-911.81 289.36,-947.81"/>
<text text-anchor="middle" x="240.86" y="-925.61" font-family="DejaVu Sans,Nimbus Sans" font-size="14.00">GC_FOSSILS</text>
</g>
<!-- System &#45; Lfos System -->
<g id="node22" class="node">
<title>System &#45; Lfos System</title>
<polygon fill="lightgrey" stroke="lightgrey" points="199.89,-808.76 63.89,-790.76 199.89,-772.76 335.89,-790.76 199.89,-808.76"/>
<text text-anchor="middle" x="199.89" y="-786.56" font-family="DejaVu Sans,Nimbus Sans" font-size="14.00">System &#45; Lfos System</text>
</g>
<!-- GC_FOSSILS&#45;&#45;System &#45; Lfos System -->
<g id="edge11" class="edge">
<title>GC_FOSSILS&#45;&#45;System &#45; Lfos System</title>
<path fill="none" stroke="black" d="M240.32,-911.74C235.29,-884.65 220.39,-833.92 209.77,-807.57"/>
<text text-anchor="middle" x="221.54" y="-863.86" font-family="DejaVu Sans,Nimbus Sans" font-size="14.00">n</text>
</g>
<!-- GC_FOSSILS&#45;&#45;System &#45; Lfos System -->
<g id="edge12" class="edge">
<title>GC_FOSSILS&#45;&#45;System &#45; Lfos System</title>
<path fill="none" stroke="black" d="M230.4,-911.56C219.84,-884.89 205.42,-835.61 200.46,-808.97"/>
<text text-anchor="middle" x="211.93" y="-864.46" font-family="DejaVu Sans,Nimbus Sans" font-size="14.00">n</text>
</g>
<!-- System &#45; Lfos System&#45;&#45;GC_SYSTEM -->
<g id="edge13" class="edge">
<title>System &#45; Lfos System&#45;&#45;GC_SYSTEM</title>
<path fill="none" stroke="black" d="M192.01,-773.54C178.28,-752.54 150.31,-717.44 130.55,-696.07"/>
<text text-anchor="middle" x="155.84" y="-739.01" font-family="DejaVu Sans,Nimbus Sans" font-size="14.00">m</text>
</g>
<!-- System &#45; Lfos System&#45;&#45;GC_SYSTEM -->
<g id="edge14" class="edge">
<title>System &#45; Lfos System&#45;&#45;GC_SYSTEM</title>
<path fill="none" stroke="black" d="M180.41,-774.9C160.89,-754.15 132.01,-718.1 117.55,-696.24"/>
<text text-anchor="middle" x="143.53" y="-739.77" font-family="DejaVu Sans,Nimbus Sans" font-size="14.00">m</text>
</g>
<!-- GC_UNCO_DESPOSIT -->
<g id="node23" class="node">
<title>GC_UNCO_DESPOSIT</title>
<polygon fill="lightcoral" stroke="lightcoral" points="420.98,-365.76 266.06,-365.76 266.06,-329.76 420.98,-329.76 420.98,-365.76"/>
<text text-anchor="middle" x="343.52" y="-343.56" font-family="DejaVu Sans,Nimbus Sans" font-size="14.00">GC_UNCO_DESPOSIT</text>
</g>
<!-- Litho &#45; Runc Mat Type -->
<g id="node24" class="node">
<title>Litho &#45; Runc Mat Type</title>
<polygon fill="lightgrey" stroke="lightgrey" points="187.84,-312.6 45.34,-294.6 187.84,-276.6 330.34,-294.6 187.84,-312.6"/>
<text text-anchor="middle" x="187.84" y="-290.4" font-family="DejaVu Sans,Nimbus Sans" font-size="14.00">Litho &#45; Runc Mat Type</text>
</g>
<!-- GC_UNCO_DESPOSIT&#45;&#45;Litho &#45; Runc Mat Type -->
<g id="edge15" class="edge">
<title>GC_UNCO_DESPOSIT&#45;&#45;Litho &#45; Runc Mat Type</title>
<path fill="none" stroke="black" d="M290.38,-329.62C269.42,-322.46 245.78,-314.39 226.49,-307.8"/>
<text text-anchor="middle" x="254.94" y="-322.91" font-family="DejaVu Sans,Nimbus Sans" font-size="14.00">n</text>
</g>
<!-- Composit &#45; Runc Composit -->
<g id="node25" class="node">
<title>Composit &#45; Runc Composit</title>
<polygon fill="lightgrey" stroke="lightgrey" points="499.18,-418.94 333.68,-400.94 499.18,-382.94 664.68,-400.94 499.18,-418.94"/>
<text text-anchor="middle" x="499.18" y="-396.74" font-family="DejaVu Sans,Nimbus Sans" font-size="14.00">Composit &#45; Runc Composit</text>
</g>
<!-- GC_UNCO_DESPOSIT&#45;&#45;Composit &#45; Runc Composit -->
<g id="edge16" class="edge">
<title>GC_UNCO_DESPOSIT&#45;&#45;Composit &#45; Runc Composit</title>
<path fill="none" stroke="black" d="M396.22,-365.77C416.68,-372.76 439.74,-380.64 458.84,-387.16"/>
<text text-anchor="middle" x="424.03" y="-363.86" font-family="DejaVu Sans,Nimbus Sans" font-size="14.00">n</text>
</g>
<!-- Admixture &#45; Runc Admixtur -->
<g id="node26" class="node">
<title>Admixture &#45; Runc Admixtur</title>
<polygon fill="lightgrey" stroke="lightgrey" points="396.78,-210.09 225.27,-192.09 396.78,-174.09 568.29,-192.09 396.78,-210.09"/>
<text text-anchor="middle" x="396.78" y="-187.89" font-family="DejaVu Sans,Nimbus Sans" font-size="14.00">Admixture &#45; Runc Admixtur</text>
</g>
<!-- GC_UNCO_DESPOSIT&#45;&#45;Admixture &#45; Runc Admixtur -->
<g id="edge17" class="edge">
<title>GC_UNCO_DESPOSIT&#45;&#45;Admixture &#45; Runc Admixtur</title>
<path fill="none" stroke="black" d="M349.74,-329.6C360.05,-299.45 380.59,-239.42 390.77,-209.66"/>
<text text-anchor="middle" x="366.75" y="-273.83" font-family="DejaVu Sans,Nimbus Sans" font-size="14.00">n</text>
</g>
<!-- Charcat &#45; Runc Charact -->
<g id="node27" class="node">
<title>Charcat &#45; Runc Charact</title>
<polygon fill="lightgrey" stroke="lightgrey" points="290.34,-521.41 146.03,-503.41 290.34,-485.41 434.65,-503.41 290.34,-521.41"/>
<text text-anchor="middle" x="290.34" y="-499.21" font-family="DejaVu Sans,Nimbus Sans" font-size="14.00">Charcat &#45; Runc Charact</text>
</g>
<!-- GC_UNCO_DESPOSIT&#45;&#45;Charcat &#45; Runc Charact -->
<g id="edge18" class="edge">
<title>GC_UNCO_DESPOSIT&#45;&#45;Charcat &#45; Runc Charact</title>
<path fill="none" stroke="black" d="M332.36,-365.96C319.09,-395.96 298.9,-455.35 291.91,-485.29"/>
<text text-anchor="middle" x="308.64" y="-429.83" font-family="DejaVu Sans,Nimbus Sans" font-size="14.00">n</text>
</g>
<!-- GC_UNCO_DESPOSIT&#45;&#45;Charcat &#45; Runc Charact -->
<g id="edge19" class="edge">
<title>GC_UNCO_DESPOSIT&#45;&#45;Charcat &#45; Runc Charact</title>
<path fill="none" stroke="black" d="M341.97,-365.83C334.89,-396.17 314.22,-456.83 300.95,-486.42"/>
<text text-anchor="middle" x="317.96" y="-430.33" font-family="DejaVu Sans,Nimbus Sans" font-size="14.00">n</text>
</g>
<!-- Litho &#45; Runc Mat Type&#45;&#45;GC_LITHO -->
<g id="edge20" class="edge">
<title>Litho &#45; Runc Mat Type&#45;&#45;GC_LITHO</title>
<path fill="none" stroke="black" d="M147.66,-281.52C128.05,-275.14 104.45,-267.46 84.55,-260.99"/>
<text text-anchor="middle" x="110.66" y="-258.66" font-family="DejaVu Sans,Nimbus Sans" font-size="14.00">m</text>
</g>
<!-- Composit &#45; Runc Composit&#45;&#45;GC_COMPOSIT -->
<g id="edge21" class="edge">
<title>Composit &#45; Runc Composit&#45;&#45;GC_COMPOSIT</title>
<path fill="none" stroke="black" d="M536.92,-414.95C554.46,-421.45 575.52,-429.27 594.23,-436.22"/>
<text text-anchor="middle" x="560.13" y="-429.78" font-family="DejaVu Sans,Nimbus Sans" font-size="14.00">m</text>
</g>
<!-- Admixture &#45; Runc Admixtur&#45;&#45;GC_ADMIXTURE -->
<g id="edge22" class="edge">
<title>Admixture &#45; Runc Admixtur&#45;&#45;GC_ADMIXTURE</title>
<path fill="none" stroke="black" d="M403.03,-174.71C412.87,-147.32 431.91,-94.34 441.97,-66.35"/>
<text text-anchor="middle" x="417.05" y="-124.73" font-family="DejaVu Sans,Nimbus Sans" font-size="14.00">m</text>
</g>
<!-- Charcat &#45; Runc Charact&#45;&#45;GC_CHARCAT -->
<g id="edge23" class="edge">
<title>Charcat &#45; Runc Charact&#45;&#45;GC_CHARCAT</title>
<path fill="none" stroke="black" d="M279.78,-520.35C267.66,-547.88 249.71,-602.05 243.35,-630.45"/>
<text text-anchor="middle" x="256.12" y="-579.6" font-family="DejaVu Sans,Nimbus Sans" font-size="14.00">m</text>
</g>
<!-- Charcat &#45; Runc Charact&#45;&#45;GC_CHARCAT -->
<g id="edge24" class="edge">
<title>Charcat &#45; Runc Charact&#45;&#45;GC_CHARCAT</title>
<path fill="none" stroke="black" d="M289.06,-521.5C282.84,-549.42 265.27,-602.61 253.13,-630.59"/>
<text text-anchor="middle" x="276.54" y="-580.25" font-family="DejaVu Sans,Nimbus Sans" font-size="14.00">m</text>
</g>
<!-- GC_SURFACES -->
<g id="node28" class="node">
<title>GC_SURFACES</title>
<polygon fill="lightcoral" stroke="lightcoral" points="623.39,-756 509.88,-756 509.88,-720 623.39,-720 623.39,-756"/>
<text text-anchor="middle" x="566.63" y="-733.8" font-family="DejaVu Sans,Nimbus Sans" font-size="14.00">GC_SURFACES</text>
</g>
<!-- GC_EXPLOIT_GEOMAT_PT -->
<g id="node29" class="node">
<title>GC_EXPLOIT_GEOMAT_PT</title>
<polygon fill="lightcoral" stroke="lightcoral" points="1026.66,-266.65 835.66,-266.65 835.66,-230.65 1026.66,-230.65 1026.66,-266.65"/>
<text text-anchor="middle" x="931.16" y="-244.45" font-family="DejaVu Sans,Nimbus Sans" font-size="14.00">GC_EXPLOIT_GEOMAT_PT</text>
</g>
<!-- GC_EXPLOIT_GEOMAT_PT&#45;&#45;Litstrat &#45; Aexp Exp Unit -->
<g id="edge25" class="edge">
<title>GC_EXPLOIT_GEOMAT_PT&#45;&#45;Litstrat &#45; Aexp Exp Unit</title>
<path fill="none" stroke="black" d="M897.25,-230.63C880.09,-223.76 858.87,-216.2 839.58,-210.02"/>
<text text-anchor="middle" x="864.92" y="-224.53" font-family="DejaVu Sans,Nimbus Sans" font-size="14.00">n</text>
</g>
<!-- GC_EXPLOIT_GEOMAT_PT&#45;&#45;Litstrat &#45; Aexp Exp Unit -->
<g id="edge26" class="edge">
<title>GC_EXPLOIT_GEOMAT_PT&#45;&#45;Litstrat &#45; Aexp Exp Unit</title>
<path fill="none" stroke="black" d="M858.57,-230.62C842.1,-224.95 825.64,-218.79 812.58,-213.32"/>
<text text-anchor="middle" x="832.07" y="-226.17" font-family="DejaVu Sans,Nimbus Sans" font-size="14.00">n</text>
</g>
</g>
</svg>
