<?xml version="1.0" encoding="UTF-8" standalone="no"?>
<!DOCTYPE svg PUBLIC "-//W3C//DTD SVG 1.1//EN"
 "http://www.w3.org/Graphics/SVG/1.1/DTD/svg11.dtd">
<!-- Generated by graphviz version 9.0.0 (20231125.0833)
 -->
<!-- Pages: 1 -->
<svg width="1193pt" height="773pt"
 viewBox="0.00 0.00 1192.77 772.83" xmlns="http://www.w3.org/2000/svg" xmlns:xlink="http://www.w3.org/1999/xlink">
<g id="graph0" class="graph" transform="scale(1 1) rotate(0) translate(4 768.83)">
<polygon fill="white" stroke="none" points="-4,4 -4,-768.83 1188.77,-768.83 1188.77,4 -4,4"/>
<text text-anchor="middle" x="592.39" y="-717.33" font-family="DejaVu Sans,Nimbus Sans" font-size="50.00">GCOVERP Schema (SDE)</text>
<!-- GC_CHRONO -->
<g id="node1" class="node">
<title>GC_CHRONO</title>
<polygon fill="lightblue" stroke="lightblue" points="526,-428 420,-428 420,-392 526,-392 526,-428"/>
<text text-anchor="middle" x="473" y="-405.32" font-family="DejaVu Sans,Nimbus Sans" font-size="14.00">GC_CHRONO</text>
</g>
<!-- GC_LITHO -->
<g id="node2" class="node">
<title>GC_LITHO</title>
<polygon fill="lightblue" stroke="lightblue" points="85,-349.98 0,-349.98 0,-313.98 85,-313.98 85,-349.98"/>
<text text-anchor="middle" x="42.5" y="-327.31" font-family="DejaVu Sans,Nimbus Sans" font-size="14.00">GC_LITHO</text>
</g>
<!-- GC_LITSTRAT -->
<g id="node3" class="node">
<title>GC_LITSTRAT</title>
<polygon fill="lightblue" stroke="lightblue" points="695.65,-456 589.65,-456 589.65,-420 695.65,-420 695.65,-456"/>
<text text-anchor="middle" x="642.65" y="-433.32" font-family="DejaVu Sans,Nimbus Sans" font-size="14.00">GC_LITSTRAT</text>
</g>
<!-- GC_TECTO -->
<g id="node4" class="node">
<title>GC_TECTO</title>
<polygon fill="lightblue" stroke="lightblue" points="201.5,-120 112,-120 112,-84 201.5,-84 201.5,-120"/>
<text text-anchor="middle" x="156.75" y="-97.33" font-family="DejaVu Sans,Nimbus Sans" font-size="14.00">GC_TECTO</text>
</g>
<!-- GC_LITHO_UNCO -->
<g id="node5" class="node">
<title>GC_LITHO_UNCO</title>
<polygon fill="lightblue" stroke="lightblue" points="553.75,-120 420,-120 420,-84 553.75,-84 553.75,-120"/>
<text text-anchor="middle" x="486.88" y="-97.33" font-family="DejaVu Sans,Nimbus Sans" font-size="14.00">GC_LITHO_UNCO</text>
</g>
<!-- GC_LITHO_BED -->
<g id="node6" class="node">
<title>GC_LITHO_BED</title>
<polygon fill="lightblue" stroke="lightblue" points="597,-283.44 476,-283.44 476,-247.44 597,-247.44 597,-283.44"/>
<text text-anchor="middle" x="536.5" y="-260.76" font-family="DejaVu Sans,Nimbus Sans" font-size="14.00">GC_LITHO_BED</text>
</g>
<!-- GC_LITSTRAT_BED -->
<g id="node7" class="node">
<title>GC_LITSTRAT_BED</title>
<polygon fill="lightblue" stroke="lightblue" points="730,-624 588,-624 588,-588 730,-588 730,-624"/>
<text text-anchor="middle" x="659" y="-601.33" font-family="DejaVu Sans,Nimbus Sans" font-size="14.00">GC_LITSTRAT_BED</text>
</g>
<!-- GC_LITSTRAT_UNCO -->
<g id="node8" class="node">
<title>GC_LITSTRAT_UNCO</title>
<polygon fill="lightblue" stroke="lightblue" points="350.74,-428 195.99,-428 195.99,-392 350.74,-392 350.74,-428"/>
<text text-anchor="middle" x="273.37" y="-405.32" font-family="DejaVu Sans,Nimbus Sans" font-size="14.00">GC_LITSTRAT_UNCO</text>
</g>
<!-- GC_BED_FORM_ATT -->
<g id="node9" class="node">
<title>GC_BED_FORM_ATT</title>
<polygon fill="lightblue" stroke="lightblue" points="1184.77,-260 1033.02,-260 1033.02,-224 1184.77,-224 1184.77,-260"/>
<text text-anchor="middle" x="1108.9" y="-237.32" font-family="DejaVu Sans,Nimbus Sans" font-size="14.00">GC_BED_FORM_ATT</text>
</g>
<!-- Bedrock &#45; Rbed Form Att -->
<g id="node10" class="node">
<title>Bedrock &#45; Rbed Form Att</title>
<polygon fill="lightgrey" stroke="lightgrey" points="965.44,-274.85 781.41,-256.85 965.44,-238.85 1149.46,-256.85 965.44,-274.85"/>
<text text-anchor="middle" x="965.44" y="-252.18" font-family="DejaVu Sans,Nimbus Sans" font-size="14.00">Bedrock &#45; Rbed Form Att</text>
</g>
<!-- GC_BED_FORM_ATT&#45;&#45;Bedrock &#45; Rbed Form Att -->
<g id="edge1" class="edge">
<title>GC_BED_FORM_ATT&#45;&#45;Bedrock &#45; Rbed Form Att</title>
<path fill="none" stroke="black" d="M1032.7,-243.11C1029.7,-243.43 1026.8,-243.76 1023.8,-244.11"/>
<text text-anchor="middle" x="1023.8" y="-230.3" font-family="DejaVu Sans,Nimbus Sans" font-size="14.00">1</text>
</g>
<!-- GC_BED_FORM_ATT&#45;&#45;Bedrock &#45; Rbed Form Att -->
<g id="edge2" class="edge">
<title>GC_BED_FORM_ATT&#45;&#45;Bedrock &#45; Rbed Form Att</title>
<path fill="none" stroke="black" d="M1032.8,-256.64C1032.7,-256.66 1032.6,-256.67 1032.4,-256.68"/>
<text text-anchor="middle" x="1028.1" y="-260.62" font-family="DejaVu Sans,Nimbus Sans" font-size="14.00">1</text>
</g>
<!-- GC_BEDROCK -->
<g id="node11" class="node">
<title>GC_BEDROCK</title>
<polygon fill="lightcoral" stroke="lightcoral" points="880.47,-308.05 768.47,-308.05 768.47,-272.05 880.47,-272.05 880.47,-308.05"/>
<text text-anchor="middle" x="824.47" y="-285.38" font-family="DejaVu Sans,Nimbus Sans" font-size="14.00">GC_BEDROCK</text>
</g>
<!-- Bedrock &#45; Rbed Form Att&#45;&#45;GC_BEDROCK -->
<g id="edge3" class="edge">
<title>Bedrock &#45; Rbed Form Att&#45;&#45;GC_BEDROCK</title>
<path fill="none" stroke="black" d="M889.28,-267.86C884.27,-269.07 879.29,-270.31 874.46,-271.57"/>
<text text-anchor="middle" x="888.62" y="-273.66" font-family="DejaVu Sans,Nimbus Sans" font-size="14.00">m</text>
</g>
<!-- Bedrock &#45; Rbed Form Att&#45;&#45;GC_BEDROCK -->
<g id="edge4" class="edge">
<title>Bedrock &#45; Rbed Form Att&#45;&#45;GC_BEDROCK</title>
<path fill="none" stroke="black" d="M928.68,-271.74C914.08,-275.86 896.94,-280.08 880.83,-283.55"/>
<text text-anchor="middle" x="911.51" y="-281.59" font-family="DejaVu Sans,Nimbus Sans" font-size="14.00">m</text>
</g>
<!-- Litho Bed &#45; Rbed Litho -->
<g id="node12" class="node">
<title>Litho Bed &#45; Rbed Litho</title>
<polygon fill="lightgrey" stroke="lightgrey" points="680.03,-297.95 511.63,-279.95 680.03,-261.95 848.43,-279.95 680.03,-297.95"/>
<text text-anchor="middle" x="680.03" y="-275.27" font-family="DejaVu Sans,Nimbus Sans" font-size="14.00">Litho Bed &#45; Rbed Litho</text>
</g>
<!-- GC_BEDROCK&#45;&#45;Litho Bed &#45; Rbed Litho -->
<g id="edge5" class="edge">
<title>GC_BEDROCK&#45;&#45;Litho Bed &#45; Rbed Litho</title>
<path fill="none" stroke="black" d="M768.21,-286.12C768.05,-286.11 767.89,-286.09 767.73,-286.08"/>
<text text-anchor="middle" x="763.47" y="-290.05" font-family="DejaVu Sans,Nimbus Sans" font-size="14.00">n</text>
</g>
<!-- Litho Bed &#45; Rbed Litho&#45;&#45;GC_LITHO_BED -->
<g id="edge6" class="edge">
<title>Litho Bed &#45; Rbed Litho&#45;&#45;GC_LITHO_BED</title>
<path fill="none" stroke="black" d="M591.17,-270.97C591.06,-270.95 590.94,-270.94 590.83,-270.93"/>
<text text-anchor="middle" x="597.75" y="-257.64" font-family="DejaVu Sans,Nimbus Sans" font-size="14.00">m</text>
</g>
<!-- GC_SYSTEM -->
<g id="node13" class="node">
<title>GC_SYSTEM</title>
<polygon fill="lightblue" stroke="lightblue" points="714.5,-143.71 616,-143.71 616,-107.71 714.5,-107.71 714.5,-143.71"/>
<text text-anchor="middle" x="665.25" y="-121.03" font-family="DejaVu Sans,Nimbus Sans" font-size="14.00">GC_SYSTEM</text>
</g>
<!-- GC_COMPOSIT -->
<g id="node14" class="node">
<title>GC_COMPOSIT</title>
<polygon fill="lightblue" stroke="lightblue" points="736.39,-358.04 619.13,-358.04 619.13,-322.04 736.39,-322.04 736.39,-358.04"/>
<text text-anchor="middle" x="677.76" y="-335.37" font-family="DejaVu Sans,Nimbus Sans" font-size="14.00">GC_COMPOSIT</text>
</g>
<!-- GC_ADMIXTURE -->
<g id="node15" class="node">
<title>GC_ADMIXTURE</title>
<polygon fill="lightblue" stroke="lightblue" points="427.18,-36 300.92,-36 300.92,0 427.18,0 427.18,-36"/>
<text text-anchor="middle" x="364.05" y="-13.32" font-family="DejaVu Sans,Nimbus Sans" font-size="14.00">GC_ADMIXTURE</text>
</g>
<!-- GC_CHARCAT -->
<g id="node16" class="node">
<title>GC_CHARCAT</title>
<polygon fill="lightblue" stroke="lightblue" points="412.28,-671.29 304.02,-671.29 304.02,-635.29 412.28,-635.29 412.28,-671.29"/>
<text text-anchor="middle" x="358.15" y="-648.62" font-family="DejaVu Sans,Nimbus Sans" font-size="14.00">GC_CHARCAT</text>
</g>
<!-- GC_EXPLOIT_GEOMAT_PLG -->
<g id="node17" class="node">
<title>GC_EXPLOIT_GEOMAT_PLG</title>
<polygon fill="lightcoral" stroke="lightcoral" points="1007.08,-494.37 806.58,-494.37 806.58,-458.37 1007.08,-458.37 1007.08,-494.37"/>
<text text-anchor="middle" x="906.83" y="-471.69" font-family="DejaVu Sans,Nimbus Sans" font-size="14.00">GC_EXPLOIT_GEOMAT_PLG</text>
</g>
<!-- Litstrat &#45; Aexp Exp Unit -->
<g id="node18" class="node">
<title>Litstrat &#45; Aexp Exp Unit</title>
<polygon fill="lightgrey" stroke="lightgrey" points="763.84,-550.31 588,-532.31 763.84,-514.31 939.68,-532.31 763.84,-550.31"/>
<text text-anchor="middle" x="763.84" y="-527.63" font-family="DejaVu Sans,Nimbus Sans" font-size="14.00">Litstrat &#45; Aexp Exp Unit</text>
</g>
<!-- GC_EXPLOIT_GEOMAT_PLG&#45;&#45;Litstrat &#45; Aexp Exp Unit -->
<g id="edge7" class="edge">
<title>GC_EXPLOIT_GEOMAT_PLG&#45;&#45;Litstrat &#45; Aexp Exp Unit</title>
<path fill="none" stroke="black" d="M859.61,-494.84C840.58,-502.29 818.94,-510.75 801.05,-517.75"/>
<text text-anchor="middle" x="825.83" y="-493" font-family="DejaVu Sans,Nimbus Sans" font-size="14.00">n</text>
</g>
<!-- Litstrat &#45; Aexp Exp Unit&#45;&#45;GC_LITSTRAT -->
<g id="edge8" class="edge">
<title>Litstrat &#45; Aexp Exp Unit&#45;&#45;GC_LITSTRAT</title>
<path fill="none" stroke="black" d="M755.85,-514.86C741.51,-497.94 711.95,-473.42 686.53,-456.33"/>
<text text-anchor="middle" x="714.44" y="-489.55" font-family="DejaVu Sans,Nimbus Sans" font-size="14.00">m</text>
</g>
<!-- Litstrat &#45; Aexp Exp Unit&#45;&#45;GC_LITSTRAT -->
<g id="edge9" class="edge">
<title>Litstrat &#45; Aexp Exp Unit&#45;&#45;GC_LITSTRAT</title>
<path fill="none" stroke="black" d="M725.95,-517.91C699.81,-501.15 667.29,-474.66 651.47,-456.42"/>
<text text-anchor="middle" x="681.96" y="-491.12" font-family="DejaVu Sans,Nimbus Sans" font-size="14.00">m</text>
</g>
<!-- Litstrat &#45; Aexp Exp Unit&#45;&#45;GC_LITSTRAT -->
<g id="edge10" class="edge">
<title>Litstrat &#45; Aexp Exp Unit&#45;&#45;GC_LITSTRAT</title>
<path fill="none" stroke="black" d="M743.01,-516.1C721.62,-499.45 688.41,-473.61 666.11,-456.26"/>
<text text-anchor="middle" x="697.81" y="-490.12" font-family="DejaVu Sans,Nimbus Sans" font-size="14.00">m</text>
</g>
<!-- GC_LINEAR_OBJECTS -->
<g id="node19" class="node">
<title>GC_LINEAR_OBJECTS</title>
<polygon fill="lightcoral" stroke="lightcoral" points="330.26,-288 168,-288 168,-252 330.26,-252 330.26,-288"/>
<text text-anchor="middle" x="249.13" y="-265.32" font-family="DejaVu Sans,Nimbus Sans" font-size="14.00">GC_LINEAR_OBJECTS</text>
</g>
<!-- GC_POINT_OBJECTS -->
<g id="node20" class="node">
<title>GC_POINT_OBJECTS</title>
<polygon fill="lightcoral" stroke="lightcoral" points="350,-596 196,-596 196,-560 350,-560 350,-596"/>
<text text-anchor="middle" x="273" y="-573.33" font-family="DejaVu Sans,Nimbus Sans" font-size="14.00">GC_POINT_OBJECTS</text>
</g>
<!-- GC_FOSSILS -->
<g id="node21" class="node">
<title>GC_FOSSILS</title>
<polygon fill="lightcoral" stroke="lightcoral" points="1000.51,-149.6 899.01,-149.6 899.01,-113.6 1000.51,-113.6 1000.51,-149.6"/>
<text text-anchor="middle" x="949.76" y="-126.92" font-family="DejaVu Sans,Nimbus Sans" font-size="14.00">GC_FOSSILS</text>
</g>
<!-- System &#45; Lfos System -->
<g id="node22" class="node">
<title>System &#45; Lfos System</title>
<polygon fill="lightgrey" stroke="lightgrey" points="808.07,-120 642.65,-102 808.07,-84 973.49,-102 808.07,-120"/>
<text text-anchor="middle" x="808.07" y="-97.33" font-family="DejaVu Sans,Nimbus Sans" font-size="14.00">System &#45; Lfos System</text>
</g>
<!-- GC_FOSSILS&#45;&#45;System &#45; Lfos System -->
<g id="edge11" class="edge">
<title>GC_FOSSILS&#45;&#45;System &#45; Lfos System</title>
<path fill="none" stroke="black" d="M898.74,-114.26C895.13,-113.42 891.44,-112.59 887.73,-111.78"/>
<text text-anchor="middle" x="888.73" y="-116.98" font-family="DejaVu Sans,Nimbus Sans" font-size="14.00">n</text>
</g>
<!-- GC_FOSSILS&#45;&#45;System &#45; Lfos System -->
<g id="edge12" class="edge">
<title>GC_FOSSILS&#45;&#45;System &#45; Lfos System</title>
<path fill="none" stroke="black" d="M898.88,-127.59C881.54,-124.44 862.48,-120.34 846.31,-116.25"/>
<text text-anchor="middle" x="868.09" y="-125.86" font-family="DejaVu Sans,Nimbus Sans" font-size="14.00">n</text>
</g>
<!-- System &#45; Lfos System&#45;&#45;GC_SYSTEM -->
<g id="edge13" class="edge">
<title>System &#45; Lfos System&#45;&#45;GC_SYSTEM</title>
<path fill="none" stroke="black" d="M716.95,-110.49C716.29,-110.62 715.62,-110.75 714.96,-110.87"/>
<text text-anchor="middle" x="722.71" y="-114.64" font-family="DejaVu Sans,Nimbus Sans" font-size="14.00">m</text>
</g>
<!-- System &#45; Lfos System&#45;&#45;GC_SYSTEM -->
<g id="edge14" class="edge">
<title>System &#45; Lfos System&#45;&#45;GC_SYSTEM</title>
<path fill="none" stroke="black" d="M764.3,-115.67C748.69,-118.8 730.98,-121.78 714.9,-123.99"/>
<text text-anchor="middle" x="746.35" y="-123.77" font-family="DejaVu Sans,Nimbus Sans" font-size="14.00">m</text>
</g>
<!-- GC_UNCO_DESPOSIT -->
<g id="node23" class="node">
<title>GC_UNCO_DESPOSIT</title>
<polygon fill="lightcoral" stroke="lightcoral" points="440.88,-353.63 279.38,-353.63 279.38,-317.63 440.88,-317.63 440.88,-353.63"/>
<text text-anchor="middle" x="360.13" y="-330.95" font-family="DejaVu Sans,Nimbus Sans" font-size="14.00">GC_UNCO_DESPOSIT</text>
</g>
<!-- Litho &#45; Runc Mat Type -->
<g id="node24" class="node">
<title>Litho &#45; Runc Mat Type</title>
<polygon fill="lightgrey" stroke="lightgrey" points="195.62,-352.38 32.43,-334.38 195.62,-316.38 358.81,-334.38 195.62,-352.38"/>
<text text-anchor="middle" x="195.62" y="-329.7" font-family="DejaVu Sans,Nimbus Sans" font-size="14.00">Litho &#45; Runc Mat Type</text>
</g>
<!-- GC_UNCO_DESPOSIT&#45;&#45;Litho &#45; Runc Mat Type -->
<g id="edge15" class="edge">
<title>GC_UNCO_DESPOSIT&#45;&#45;Litho &#45; Runc Mat Type</title>
<path fill="none" stroke="black" d="M279.32,-335.02C279.16,-335.02 278.99,-335.02 278.83,-335.02"/>
<text text-anchor="middle" x="274.58" y="-338.96" font-family="DejaVu Sans,Nimbus Sans" font-size="14.00">n</text>
</g>
<!-- Composit &#45; Runc Composit -->
<g id="node25" class="node">
<title>Composit &#45; Runc Composit</title>
<polygon fill="lightgrey" stroke="lightgrey" points="524.62,-354.38 326.46,-336.38 524.62,-318.38 722.78,-336.38 524.62,-354.38"/>
<text text-anchor="middle" x="524.62" y="-331.7" font-family="DejaVu Sans,Nimbus Sans" font-size="14.00">Composit &#45; Runc Composit</text>
</g>
<!-- GC_UNCO_DESPOSIT&#45;&#45;Composit &#45; Runc Composit -->
<g id="edge16" class="edge">
<title>GC_UNCO_DESPOSIT&#45;&#45;Composit &#45; Runc Composit</title>
<path fill="none" stroke="black" d="M440.93,-336C441.09,-336 441.25,-336 441.42,-336"/>
<text text-anchor="middle" x="445.67" y="-339.95" font-family="DejaVu Sans,Nimbus Sans" font-size="14.00">n</text>
</g>
<!-- Admixture &#45; Runc Admixtur -->
<g id="node26" class="node">
<title>Admixture &#45; Runc Admixtur</title>
<polygon fill="lightgrey" stroke="lightgrey" points="361.6,-189.14 158.97,-171.14 361.6,-153.14 564.23,-171.14 361.6,-189.14"/>
<text text-anchor="middle" x="361.6" y="-166.46" font-family="DejaVu Sans,Nimbus Sans" font-size="14.00">Admixture &#45; Runc Admixtur</text>
</g>
<!-- GC_UNCO_DESPOSIT&#45;&#45;Admixture &#45; Runc Admixtur -->
<g id="edge17" class="edge">
<title>GC_UNCO_DESPOSIT&#45;&#45;Admixture &#45; Runc Admixtur</title>
<path fill="none" stroke="black" d="M360.29,-317.4C360.57,-285.78 361.15,-221.13 361.43,-189.45"/>
<text text-anchor="middle" x="356.36" y="-257.38" font-family="DejaVu Sans,Nimbus Sans" font-size="14.00">n</text>
</g>
<!-- Charcat &#45; Runc Charact -->
<g id="node27" class="node">
<title>Charcat &#45; Runc Charact</title>
<polygon fill="lightgrey" stroke="lightgrey" points="359.28,-518.13 184.18,-500.13 359.28,-482.13 534.38,-500.13 359.28,-518.13"/>
<text text-anchor="middle" x="359.28" y="-495.45" font-family="DejaVu Sans,Nimbus Sans" font-size="14.00">Charcat &#45; Runc Charact</text>
</g>
<!-- GC_UNCO_DESPOSIT&#45;&#45;Charcat &#45; Runc Charact -->
<g id="edge18" class="edge">
<title>GC_UNCO_DESPOSIT&#45;&#45;Charcat &#45; Runc Charact</title>
<path fill="none" stroke="black" d="M355.6,-353.84C352.33,-385.61 352.01,-450.79 354.98,-482.29"/>
<text text-anchor="middle" x="359.79" y="-404.76" font-family="DejaVu Sans,Nimbus Sans" font-size="14.00">n</text>
</g>
<!-- GC_UNCO_DESPOSIT&#45;&#45;Charcat &#45; Runc Charact -->
<g id="edge19" class="edge">
<title>GC_UNCO_DESPOSIT&#45;&#45;Charcat &#45; Runc Charact</title>
<path fill="none" stroke="black" d="M364.47,-353.89C367.41,-385.69 367.06,-450.86 363.76,-482.34"/>
<text text-anchor="middle" x="359.62" y="-422.06" font-family="DejaVu Sans,Nimbus Sans" font-size="14.00">n</text>
</g>
<!-- Litho &#45; Runc Mat Type&#45;&#45;GC_LITHO -->
<g id="edge20" class="edge">
<title>Litho &#45; Runc Mat Type&#45;&#45;GC_LITHO</title>
<path fill="none" stroke="black" d="M49.08,-332.08C48.95,-332.08 48.82,-332.08 48.69,-332.07"/>
<text text-anchor="middle" x="42.14" y="-336.02" font-family="DejaVu Sans,Nimbus Sans" font-size="14.00">m</text>
</g>
<!-- Composit &#45; Runc Composit&#45;&#45;GC_COMPOSIT -->
<g id="edge21" class="edge">
<title>Composit &#45; Runc Composit&#45;&#45;GC_COMPOSIT</title>
<path fill="none" stroke="black" d="M677.65,-340.04C677.69,-340.04 677.72,-340.04 677.73,-340.04"/>
<text text-anchor="middle" x="670.94" y="-344" font-family="DejaVu Sans,Nimbus Sans" font-size="14.00">m</text>
</g>
<!-- Admixture &#45; Runc Admixtur&#45;&#45;GC_ADMIXTURE -->
<g id="edge22" class="edge">
<title>Admixture &#45; Runc Admixtur&#45;&#45;GC_ADMIXTURE</title>
<path fill="none" stroke="black" d="M361.89,-152.67C362.37,-123.07 363.29,-65.39 363.76,-36.06"/>
<text text-anchor="middle" x="356.08" y="-98.31" font-family="DejaVu Sans,Nimbus Sans" font-size="14.00">m</text>
</g>
<!-- Charcat &#45; Runc Charact&#45;&#45;GC_CHARCAT -->
<g id="edge23" class="edge">
<title>Charcat &#45; Runc Charact&#45;&#45;GC_CHARCAT</title>
<path fill="none" stroke="black" d="M354.63,-517.97C351.45,-547.3 351.01,-605.42 353.73,-635.03"/>
<text text-anchor="middle" x="360.93" y="-563.2" font-family="DejaVu Sans,Nimbus Sans" font-size="14.00">m</text>
</g>
<!-- Charcat &#45; Runc Charact&#45;&#45;GC_CHARCAT -->
<g id="edge24" class="edge">
<title>Charcat &#45; Runc Charact&#45;&#45;GC_CHARCAT</title>
<path fill="none" stroke="black" d="M363.67,-518.03C366.41,-547.41 366,-605.53 362.85,-635.1"/>
<text text-anchor="middle" x="370.01" y="-580.52" font-family="DejaVu Sans,Nimbus Sans" font-size="14.00">m</text>
</g>
<!-- GC_SURFACES -->
<g id="node28" class="node">
<title>GC_SURFACES</title>
<polygon fill="lightcoral" stroke="lightcoral" points="535.75,-596 420,-596 420,-560 535.75,-560 535.75,-596"/>
<text text-anchor="middle" x="477.88" y="-573.33" font-family="DejaVu Sans,Nimbus Sans" font-size="14.00">GC_SURFACES</text>
</g>
<!-- GC_EXPLOIT_GEOMAT_PT -->
<g id="node29" class="node">
<title>GC_EXPLOIT_GEOMAT_PT</title>
<polygon fill="lightcoral" stroke="lightcoral" points="837.18,-702.33 646.43,-702.33 646.43,-666.33 837.18,-666.33 837.18,-702.33"/>
<text text-anchor="middle" x="741.81" y="-679.66" font-family="DejaVu Sans,Nimbus Sans" font-size="14.00">GC_EXPLOIT_GEOMAT_PT</text>
</g>
<!-- GC_EXPLOIT_GEOMAT_PT&#45;&#45;Litstrat &#45; Aexp Exp Unit -->
<g id="edge25" class="edge">
<title>GC_EXPLOIT_GEOMAT_PT&#45;&#45;Litstrat &#45; Aexp Exp Unit</title>
<path fill="none" stroke="black" d="M749.15,-666.05C756.3,-636.69 764.54,-579.4 765.77,-550.25"/>
<text text-anchor="middle" x="752.96" y="-612.11" font-family="DejaVu Sans,Nimbus Sans" font-size="14.00">n</text>
</g>
<!-- GC_EXPLOIT_GEOMAT_PT&#45;&#45;Litstrat &#45; Aexp Exp Unit -->
<g id="edge26" class="edge">
<title>GC_EXPLOIT_GEOMAT_PT&#45;&#45;Litstrat &#45; Aexp Exp Unit</title>
<path fill="none" stroke="black" d="M739.9,-665.95C741.2,-636.39 749.55,-578.7 756.7,-549.75"/>
<text text-anchor="middle" x="743.8" y="-611.8" font-family="DejaVu Sans,Nimbus Sans" font-size="14.00">n</text>
</g>
</g>
</svg>
